/* XPM */
static char *_40af171cf52448fd79c1aa7176487f2ucTCYWHMGK2T7M8y[] = {
/* columns rows colors chars-per-pixel */
"64 64 146 2 ",
"   c None",
".  c #AF4766",
"X  c #AF4767",
"o  c #AF4866",
"O  c #AF4867",
"+  c #B04867",
"@  c #B04868",
"#  c #B14868",
"$  c #B14869",
"%  c #B24869",
"&  c #B24969",
"*  c #B2496A",
"=  c #B3496A",
"-  c #B3496B",
";  c #B4496B",
":  c #B44A6B",
">  c #886873",
",  c #886973",
"<  c #896973",
"1  c #837A7D",
"2  c #857C7F",
"3  c #9C7878",
"4  c #9D7979",
"5  c #9E7A79",
"6  c #9F7A79",
"7  c #9F7A7A",
"8  c #EC787B",
"9  c #EE797B",
"0  c #EF797B",
"q  c #EF7A7B",
"w  c #F07A7B",
"e  c #F17B7B",
"r  c #F27B7B",
"t  c #F37B7B",
"y  c #F27C7B",
"u  c #F37C7B",
"i  c #F37B7C",
"p  c #F37B7D",
"a  c #F47D7C",
"s  c #F57D7C",
"d  c #F57D7D",
"f  c #F67D7C",
"g  c #F67E7D",
"h  c #F77E7D",
"j  c #F87F7B",
"k  c #F87F7C",
"l  c #89897E",
"z  c #8A8A7F",
"x  c #8B8A7F",
"c  c #9B9976",
"v  c #9C9976",
"b  c #9C9A76",
"n  c #F8807B",
"m  c #F8807C",
"M  c #F9807C",
"N  c #F9807D",
"B  c #FA807D",
"V  c #F9807F",
"C  c #FA807E",
"Z  c #FB807E",
"A  c #FB817E",
"S  c #FB817F",
"D  c #FC817F",
"F  c #E4E26F",
"G  c #EAE76B",
"H  c #EAE76C",
"J  c #EBE76C",
"K  c #ECE76D",
"L  c #EBE86C",
"P  c #ECE86D",
"I  c #ECE86E",
"U  c #EDE86F",
"Y  c #EEE96F",
"T  c #E0E070",
"R  c #E1E070",
"E  c #E3E170",
"W  c #E4E270",
"Q  c #E6E370",
"!  c #E7E370",
"~  c #E6E371",
"^  c #E7E470",
"/  c #E8E570",
"(  c #E9E570",
")  c #E8E471",
"_  c #EAE670",
"`  c #EAE671",
"'  c #E8E472",
"]  c #EBE673",
"[  c #ECE770",
"{  c #EDE770",
"}  c #ECE771",
"|  c #EDE771",
" . c #EDE772",
".. c #EAE674",
"X. c #EDE774",
"o. c #EDE870",
"O. c #EDE871",
"+. c #EEE870",
"@. c #EEE970",
"#. c #EEE871",
"$. c #EEE971",
"%. c #EFE971",
"&. c #EEE872",
"*. c #EFE972",
"=. c #F0E971",
"-. c #F0E972",
";. c #F0E973",
":. c #F1E973",
">. c #F0EA72",
",. c #F1EA73",
"<. c #F0E974",
"1. c #F1E974",
"2. c #F0E975",
"3. c #F1EA74",
"4. c #F1EA75",
"5. c #F2EA74",
"6. c #F2EA75",
"7. c #F3EA75",
"8. c #F3EB75",
"9. c blue",
"0. c #827F80",
"q. c #7ED7BA",
"w. c #7FD7BB",
"e. c #818181",
"r. c #828281",
"t. c #818282",
"y. c #848181",
"u. c #848480",
"i. c #848481",
"p. c #8B8080",
"a. c #8C8080",
"s. c #8C8180",
"d. c #8C8181",
"f. c #818986",
"g. c #818987",
"h. c #8B8A80",
"j. c #8B8B80",
"k. c #FC8180",
"l. c #FD8180",
"z. c #FD8280",
"x. c #80D7BC",
"c. c #81D8BE",
"v. c #82D8BE",
"b. c #82D8BF",
"n. c #83D8BF",
"m. c #83D9BF",
/* pixels */
"                                                      9.9.9.9.9.9.9.9.9.9.                                                      ",
"                                              9.9.9.9.9.9.9.9.9.9.9.9.9.9.9.9.9.9.                                              ",
"                                        9.9.9.9.9.9.9.9.9.9.9.9.9.9.9.9.9.9.9.9.9.9.9.9.                                        ",
"                                    9.9.9.9.9.9.9.9.9.9.9.9.9.9.9.9.9.9.9.9.9.9.9.9.9.9.9.9.                                    ",
"                                9.9.9.9.9.9.9.9.9.9.9.9.9.9.9.9.9.9.9.9.9.9.9.9.9.9.9.9.9.9.9.9.                                ",
"                            9.9.9.9.9.9.9.9.9.9.9.9.9.9.9.9.9.9.9.9.9.9.9.9.9.9.9.9.9.9.9.9.9.9.9.9.                            ",
"                          9.9.9.9.9.9.9.9.9.9.9.9.9.9.9.9.9.9.9.9.9.9.9.9.9.9.9.9.9.9.9.9.9.9.9.9.9.9.                          ",
"                        9.9.9.9.9.9.9.9.9.9.9.9.9.9.9.9.9.9.9.9.9.9.9.9.9.9.9.9.9.9.9.9.9.9.9.9.9.9.9.9.                        ",
"                      9.9.9.9.9.9.9.9.9.9.9.9.9.9.S k.7 z 8.8.b 8.8.8.8.8.8.7.9.9.9.9.9.9.9.9.9.9.9.9.9.9.9.                    ",
"                    9.9.9.9.9.9.9.9.9.9.9.9.9.D z.7 j.8.8.8.8.b 8.8.8.8.8.8.8.@.;.;.9.9.9.9.9.9.9.9.9.9.9.9.9.                  ",
"                  9.9.9.9.9.9.9.9.9.9.9.z 6 6 6 7 j.8.8.8.8.8.b 8.8.8.8.8.8.7.7.;.7.7.@.9.9.9.9.9.9.9.9.9.9.9.9.                ",
"                9.9.9.9.9.9.9.9.9.9.9.7.,.;.;.,.,.;.;.8.8.8.8.b 8.8.8.8.8.8.7.7.;.;.@.@.=.9.9.9.9.9.9.9.9.9.9.9.9.              ",
"              9.9.9.9.9.9.9.9.9.9.8.8.8.8.7.7.7.;.;.@.;.8.8.8.b 8.8.8.8.;.;.7.@.@.@.Y ;.;.;.,.9.9.9.9.9.9.9.9.9.9.              ",
"            9.9.9.9.9.9.9.9.9.9.8.8.8.8.;.;.7.@.@.@.@.;.7.8.8.b 8.8.8.7.;.;.@.@.@.@.Y ;.;.8.;.8.9.9.9.9.9.9.9.9.9.9.            ",
"            9.9.9.9.9.9.9.9.9.7.8.8.;.7.@.;.@.;.@.@.@.8.7.8.x b ;.;.;.Y Y Y Y Y ;.@.;.@.;.8.:.;.;.9.9.9.9.9.9.9.9.9.9.          ",
"          9.9.9.9.9.9.9.9.9.;.;.;.;.;.@.;.@.;.@.@.@.;.8.8.8.x Y L L L L L Y Y Y @.;.;.;.;.8.;.;.Y @.9.9.9.9.9.9.9.9.9.          ",
"        9.9.9.9.9.9.9.9.9.;.=.=.Y =.Y Y Y ;.@.;.;.;.,.8.8.8.7.b b J J J J @.@.@.@.;.;.;.;.;.@.;.Y @.@.9.9.9.9.9.9.9.9.9.        ",
"        9.9.9.9.9.9.9.9.x =.;.=.;.Y ;.Y @.;.;.;.;.8.8.8.8.8.8.7. .x v ;.@.@.@.@.;.Y ;.@.Y @.@.@.@.@.Y Y 9.9.9.9.9.9.9.9.        ",
"      9.9.9.9.9.9.9.9.9.l x :.=.Y ;.@.;.;.;.;.;.8.7.7.8.8.8.8.7.;.;.j.;.@.;.;.@.Y Y @.@.Y @.@.@.@.@.Y G J 9.9.9.9.9.9.9.9.      ",
"      9.9.9.9.9.9.9.9.d.k 0.:.:.;.@.;.;.7.7.;.7.,.;.;.8.8.8.8.;.;.Y @.b ;.@.@.@.@.Y @.@.@.@.@.@.@.@.@.J L 9.9.9.9.9.9.9.9.      ",
"    9.9.9.9.9.9.9.9.9.n n S x @.Y ;.=.=.;.;.;.;.=.Y ;.8.8.8.;.;.Y Y ;.Y b @.@.Y @.@.@.@.Y Y Y @.@.@.@.@.@.@.9.9.9.9.9.9.9.9.    ",
"    9.9.9.9.9.9.9.9.D j n d.;.@.=.;.,.;.;.;.;.;.;.;.,.8.8.,.Y @.Y ;.Y ;.b Y ;.Y @.@.;.@.;.Y @.@.;.@.@.7.7.7.9.9.9.9.9.9.9.9.    ",
"    9.9.9.9.9.9.9.9.k k S l 7.;.@.,.;.;.=.;.;.;.,.;.;.;.;.;.@.@.Y ;.;.x ;.Y @.Y @.;.@.@.;.@.;.@.7.@.7.7.7.8.8.9.9.9.9.9.9.9.9.  ",
"  9.9.9.9.9.9.9.9.k l.l.l.k d.7.,.,.;.=.;.8.:.:.;.;.;.;.@.;.;.@.;.@.;.x ;.@.;.Y ;.@.Y ;.;.;.@.;.7.7.7.8.8.8.8.9.9.9.9.9.9.9.9.  ",
"  9.9.9.9.9.9.9.9.D k.k.k.k.k.j.8.7.@.7.7.7.@.X.@.;.@.;.@.@.;.;.Y ;.x j.b ;.;.=.;.Y @.;.;.;.;.;.8.8.8.8.8.7.j.9.9.9.9.9.9.9.9.  ",
"  9.9.9.9.9.9.9.9.S k.k.k.k.z.j.X.' ' ' X.7.7.@.;.@.;.@.@.@.@.j.x x ;.;.7.b ;.;.;.;.@.;.,.,.7.;.8.j.j.j.j.j.m.m.9.9.9.9.9.9.9.  ",
"  9.9.9.9.9.9.9.S k k k.k.k.0.h.' W W W '  .;.;.;.@.@.;.@.@.;.x 7.;.;.;.;.8.v :.7.;.;.;.8.8.8.j.g.m.m.m.m.m.m.m.9.9.9.9.9.9.9.9.",
"  9.9.9.9.9.9.9.s y 9 k.l.0.h.! W @.@.;.;.;.@.@.@.Y ;.@.,.x x ;.@.;.;.;.,.8.x b 8.8.7.b 8.j.r.g.m.m.m.m.m.m.m.m.9.9.9.9.9.9.9.9.",
"9.9.9.9.9.9.9.9.9 9 h i k.h.! ! @.@.@.;.@.@.Y ;.;.Y x x x x 8.;.;.@.;.8.8.8.8.u.b j.j.8.r.r.8.j.g.v.g.m.m.m.m.v.9.9.9.9.9.9.9.9.",
"9.9.9.9.9.9.9.9.h k d.d.r...:.:.;.@.Y Y @.;.Y ;.;.x 8.8.8.8.8.;.Y ;.;.8.8.x j.j.8.8.8.8.r.b b 8.7.j.8.j.v.v.v.x.9.9.9.9.9.9.9.9.",
"9.9.9.9.9.9.9.9.D d.k.z.k.d.x x @.@.;.;.;.Y @.Y x ;.;.;.,.8.;.@.;.Y ;.j.j.8.8.8.8.8.8.8.8.8.j.;.7.8.8.7.g.x.x.q.9.9.9.9.9.9.9.9.",
"9.9.9.9.9.9.9.9.k.d.k.z.k.S l 0.j.;.;.;.;.Y ;.;.x @.;.Y ;.;.=.Y ;.;.x 8.8.;.8.8.8.8.7.8.8.8.z 7.8.8.8.;.x g.x.q.9.9.9.9.9.9.9.9.",
"9.9.9.9.9.9.9.9.l.0.D k D n n n j 2 x l d.u.x h.@.@.@.@.;.@.@.@.Y x ,.8.;.;.,.,.X.8.8.7.8.8.8.b 8.8.8.7.;.;.x x 9.9.9.9.9.9.9.9.",
"9.9.9.9.9.9.9.9.l.l S S j n n j D j j B j x @.@.@.@.@.@.Y ;.@.@.;.x ,.;.;.;.,.,.7.8.8.8.8.@.7.1 j.8.8.8.7.8.,.,.9.9.9.9.9.9.9.9.",
"9.9.9.9.9.9.9.9.0.l.S k S j k S j B B B l  .@.@.@.@.@.@.@.;.*.,.,.j.8.;.;.;.8.7.8.7.8.8.j.j., : ; 2 0.0.j.j.j.8.9.9.9.9.9.9.9.9.",
"9.9.9.9.9.9.9.9.0.l.D D j S D D B B j D j 2 x 7.;.;.;.@.;.,.X.7.j.8.,.;.;.8.8.;.@.8.j.> , = - : ; ; ; ; : ; 2 j.9.9.9.9.9.9.9.9.",
"  9.9.9.9.9.9.9.k.D D k D D D k B n n n k k s.7.8.@.;.7.8.8.8.j.j.8.8.7.,.;.;.x > > = = : : : : ; ; : : : : : x 9.9.9.9.9.9.9.9.",
"  9.9.9.9.9.9.9.k.D k D D k.k.D n n n B k 0.d.j.j.j.j.z 8.j.j.8.8.8.8.8.8.x < + = = = = : : : : : ; : : : : < 2 9.9.9.9.9.9.9.9.",
"  9.9.9.9.9.9.9.9.j D j k.k.D k k k n B l j.8.;.;.8.8.8.i.8.8.7.7.8.8.8.8.< + + ; : : : : : : : : : : : : < 2 : 9.9.9.9.9.9.9.  ",
"  9.9.9.9.9.9.9.9.D k D k.D D k k k l x ;.;.;.;.@.;.;.8.j.8.7.@.X.@.7.@.@.< + = : : : : : : : : : : : < 2 : : 9.9.9.9.9.9.9.9.  ",
"  9.9.9.9.9.9.9.9.D S D D D l.l.k.s.;.;.:.;.;.=.Y @.;.8.z 8.7.7.,.;.;.@.x . o = = = = = : : : : : < 2 : : : ; 9.9.9.9.9.9.9.9.  ",
"    9.9.9.9.9.9.9.9.n n D D l.l.d.d.;.;.;.;.=.=.;.Y ;.,.x 8.8.7.8.@.@.;.x # = = = = : : ; ; : : < 2 : : : : : 9.9.9.9.9.9.9.9.  ",
"    9.9.9.9.9.9.9.9.d.n d.l x j.7.x @. .;.@.Y @.;.;.;.;.j.8.7.8.;.@.Y @.< # = = = @ = : ; ; = 2 : = = : : : 9.9.9.9.9.9.9.9.    ",
"    9.9.9.9.9.9.9.9.9.x x ;.;.;.;.@.j.;.@.Y Y ;.Y =.;.x 8.,.;.@.;.@.Y ;.< # @ + o o = - ; ; 0.= ; + = = = ; 9.9.9.9.9.9.9.9.    ",
"      9.9.9.9.9.9.9.9.@.=.;.;.;.;.;.h.@.@.@.;.@.=.x x 8.;.;.;.;.Y Y @.j.# # + o o o @ = > 2 = = = = o = = 9.9.9.9.9.9.9.9.      ",
"      9.9.9.9.9.9.9.9.9.=.;.;.;.;.@.h.7.;.@.x x x ;.;.:.;.Y ;.@.@.@.@.x + + o o @ @ = = 2 o . @ + o o o + 9.9.9.9.9.9.9.9.      ",
"        9.9.9.9.9.9.9.9.;.;.;.@.@.@.x x 7 7 x ;.;.;.;.;.;.Y  . .@.@.@.x + o o o o = o , o o = = = + @ @ 9.9.9.9.9.9.9.9.9.      ",
"        9.9.9.9.9.9.9.9.9.=.Y ;.;.;.5 n n x Y Y Y ;.;.;.K F T T W @.@.j.+ . + + o @ o , @ o . o . o 2 9.9.9.9.9.9.9.9.9.        ",
"          9.9.9.9.9.9.9.9.9.;.;.;.x n n n x @.;.@.@. .Q Q Q  .K F F  .h.. + # % < < < 0.o o o o 2 2 9.9.9.9.9.9.9.9.9.          ",
"            9.9.9.9.9.9.9.9.9.;.=.5 n n n 6 x x x x x W j.j.x x x x x 0.> > > l k j j 2 o o 2 2 o 9.9.9.9.9.9.9.9.9.9.          ",
"            9.9.9.9.9.9.9.9.9.9.x n D n n n 7 F ' ' W x @.@.;.@.@. .x f 2 t 9 9 t w w 0.. 2 2 o 9.9.9.9.9.9.9.9.9.9.            ",
"              9.9.9.9.9.9.9.9.9.9.D D D D j 8 x @.@.@.@.@.Y Y ;.;.@.x k j f t s t t w l 2 + + 9.9.9.9.9.9.9.9.9.9.              ",
"                9.9.9.9.9.9.9.9.9.9.9.D S S 5 ' ;.Y Y ;.Y @.Y @.;.;.x n j S j n k j l # . = 9.9.9.9.9.9.9.9.9.9.9.              ",
"                  9.9.9.9.9.9.9.9.9.9.9.S s x  .;.@.;.@.;.@.;.Y ;.;.d.n D n n n k d.1 # 9.9.9.9.9.9.9.9.9.9.9.9.                ",
"                    9.9.9.9.9.9.9.9.9.9.9.9.' Y @.@.;.;.@.;.@.Y =.;.d.D D j n n B s.9.9.9.9.9.9.9.9.9.9.9.9.9.                  ",
"                      9.9.9.9.9.9.9.9.9.9.9.9.9.9.;.;.8.7.;.;.;.=.;.d.k n B n 9.9.9.9.9.9.9.9.9.9.9.9.9.9.9.                    ",
"                        9.9.9.9.9.9.9.9.9.9.9.9.9.9.9.9.9.9.9.9.9.9.9.9.9.9.9.9.9.9.9.9.9.9.9.9.9.9.9.9.9.                      ",
"                          9.9.9.9.9.9.9.9.9.9.9.9.9.9.9.9.9.9.9.9.9.9.9.9.9.9.9.9.9.9.9.9.9.9.9.9.9.9.                          ",
"                            9.9.9.9.9.9.9.9.9.9.9.9.9.9.9.9.9.9.9.9.9.9.9.9.9.9.9.9.9.9.9.9.9.9.9.9.                            ",
"                                9.9.9.9.9.9.9.9.9.9.9.9.9.9.9.9.9.9.9.9.9.9.9.9.9.9.9.9.9.9.9.9.                                ",
"                                    9.9.9.9.9.9.9.9.9.9.9.9.9.9.9.9.9.9.9.9.9.9.9.9.9.9.9.9.                                    ",
"                                        9.9.9.9.9.9.9.9.9.9.9.9.9.9.9.9.9.9.9.9.9.9.9.9.                                        ",
"                                              9.9.9.9.9.9.9.9.9.9.9.9.9.9.9.9.9.9.                                              ",
"                                                      9.9.9.9.9.9.9.9.9.9.                                                      "
};
